<svg id="visual" viewBox="0 0 960 300" width="960" height="300" xmlns="http://www.w3.org/2000/svg" xmlns:xlink="http://www.w3.org/1999/xlink" version="1.1"><rect x="0" y="0" width="960" height="300" fill="#3c31dd"></rect><path d="M0 189L13.3 193.3C26.7 197.7 53.3 206.3 80 205.7C106.7 205 133.3 195 160 190C186.7 185 213.3 185 240 189.8C266.7 194.7 293.3 204.3 320 206.2C346.7 208 373.3 202 400 200.5C426.7 199 453.3 202 480 203.8C506.7 205.7 533.3 206.3 560 208.3C586.7 210.3 613.3 213.7 640 215.2C666.7 216.7 693.3 216.3 720 217C746.7 217.7 773.3 219.3 800 214.3C826.7 209.3 853.3 197.7 880 192.3C906.7 187 933.3 188 946.7 188.5L960 189L960 0L946.7 0C933.3 0 906.7 0 880 0C853.3 0 826.7 0 800 0C773.3 0 746.7 0 720 0C693.3 0 666.7 0 640 0C613.3 0 586.7 0 560 0C533.3 0 506.7 0 480 0C453.3 0 426.7 0 400 0C373.3 0 346.7 0 320 0C293.3 0 266.7 0 240 0C213.3 0 186.7 0 160 0C133.3 0 106.7 0 80 0C53.3 0 26.7 0 13.3 0L0 0Z" fill="#1656b6"></path><path d="M0 156L13.3 158C26.7 160 53.3 164 80 161.5C106.7 159 133.3 150 160 147.2C186.7 144.3 213.3 147.7 240 149.3C266.7 151 293.3 151 320 150.5C346.7 150 373.3 149 400 147C426.7 145 453.3 142 480 141.2C506.7 140.3 533.3 141.7 560 146.7C586.7 151.7 613.3 160.3 640 163.2C666.7 166 693.3 163 720 158.7C746.7 154.3 773.3 148.7 800 145.8C826.7 143 853.3 143 880 144.2C906.7 145.3 933.3 147.7 946.7 148.8L960 150L960 0L946.7 0C933.3 0 906.7 0 880 0C853.3 0 826.7 0 800 0C773.3 0 746.7 0 720 0C693.3 0 666.7 0 640 0C613.3 0 586.7 0 560 0C533.3 0 506.7 0 480 0C453.3 0 426.7 0 400 0C373.3 0 346.7 0 320 0C293.3 0 266.7 0 240 0C213.3 0 186.7 0 160 0C133.3 0 106.7 0 80 0C53.3 0 26.7 0 13.3 0L0 0Z" fill="#29427f"></path><path d="M0 95L13.3 97.5C26.7 100 53.3 105 80 105.2C106.7 105.3 133.3 100.7 160 101.8C186.7 103 213.3 110 240 112.2C266.7 114.3 293.3 111.7 320 109.7C346.7 107.7 373.3 106.3 400 105C426.7 103.7 453.3 102.3 480 101.8C506.7 101.3 533.3 101.7 560 102.5C586.7 103.3 613.3 104.7 640 104.3C666.7 104 693.3 102 720 103.5C746.7 105 773.3 110 800 112.7C826.7 115.3 853.3 115.7 880 116.7C906.7 117.7 933.3 119.3 946.7 120.2L960 121L960 0L946.7 0C933.3 0 906.7 0 880 0C853.3 0 826.7 0 800 0C773.3 0 746.7 0 720 0C693.3 0 666.7 0 640 0C613.3 0 586.7 0 560 0C533.3 0 506.7 0 480 0C453.3 0 426.7 0 400 0C373.3 0 346.7 0 320 0C293.3 0 266.7 0 240 0C213.3 0 186.7 0 160 0C133.3 0 106.7 0 80 0C53.3 0 26.7 0 13.3 0L0 0Z" fill="#282f4c"></path><path d="M0 60L13.3 59.7C26.7 59.3 53.3 58.7 80 59.2C106.7 59.7 133.3 61.3 160 60.8C186.7 60.3 213.3 57.7 240 56.2C266.7 54.7 293.3 54.3 320 54.7C346.7 55 373.3 56 400 58.7C426.7 61.3 453.3 65.7 480 64.2C506.7 62.7 533.3 55.3 560 53.3C586.7 51.3 613.3 54.7 640 54.7C666.7 54.7 693.3 51.3 720 53.3C746.7 55.3 773.3 62.7 800 63.2C826.7 63.7 853.3 57.3 880 53.8C906.7 50.3 933.3 49.7 946.7 49.3L960 49L960 0L946.7 0C933.3 0 906.7 0 880 0C853.3 0 826.7 0 800 0C773.3 0 746.7 0 720 0C693.3 0 666.7 0 640 0C613.3 0 586.7 0 560 0C533.3 0 506.7 0 480 0C453.3 0 426.7 0 400 0C373.3 0 346.7 0 320 0C293.3 0 266.7 0 240 0C213.3 0 186.7 0 160 0C133.3 0 106.7 0 80 0C53.3 0 26.7 0 13.3 0L0 0Z" fill="#1d1d1d"></path></svg>