<svg id="visual" viewBox="0 0 960 300" width="960" height="300" xmlns="http://www.w3.org/2000/svg" xmlns:xlink="http://www.w3.org/1999/xlink" version="1.1"><rect x="0" y="0" width="960" height="300" fill="#05a369"></rect><path d="M0 184L13.3 189.7C26.7 195.3 53.3 206.7 80 208.8C106.7 211 133.3 204 160 203C186.7 202 213.3 207 240 207.2C266.7 207.3 293.3 202.7 320 199.7C346.7 196.7 373.3 195.3 400 197.7C426.7 200 453.3 206 480 205.2C506.7 204.3 533.3 196.7 560 196.5C586.7 196.3 613.3 203.7 640 203.8C666.7 204 693.3 197 720 195.8C746.7 194.7 773.3 199.3 800 203C826.7 206.7 853.3 209.3 880 211.7C906.7 214 933.3 216 946.7 217L960 218L960 0L946.7 0C933.3 0 906.7 0 880 0C853.3 0 826.7 0 800 0C773.3 0 746.7 0 720 0C693.3 0 666.7 0 640 0C613.3 0 586.7 0 560 0C533.3 0 506.7 0 480 0C453.3 0 426.7 0 400 0C373.3 0 346.7 0 320 0C293.3 0 266.7 0 240 0C213.3 0 186.7 0 160 0C133.3 0 106.7 0 80 0C53.3 0 26.7 0 13.3 0L0 0Z" fill="#00784c"></path><path d="M0 144L13.3 144.5C26.7 145 53.3 146 80 149.3C106.7 152.7 133.3 158.3 160 157.7C186.7 157 213.3 150 240 145.8C266.7 141.7 293.3 140.3 320 141.5C346.7 142.7 373.3 146.3 400 150.5C426.7 154.7 453.3 159.3 480 158.5C506.7 157.7 533.3 151.3 560 151.5C586.7 151.7 613.3 158.3 640 160.2C666.7 162 693.3 159 720 158.2C746.7 157.3 773.3 158.7 800 159.7C826.7 160.7 853.3 161.3 880 161C906.7 160.7 933.3 159.3 946.7 158.7L960 158L960 0L946.7 0C933.3 0 906.7 0 880 0C853.3 0 826.7 0 800 0C773.3 0 746.7 0 720 0C693.3 0 666.7 0 640 0C613.3 0 586.7 0 560 0C533.3 0 506.7 0 480 0C453.3 0 426.7 0 400 0C373.3 0 346.7 0 320 0C293.3 0 266.7 0 240 0C213.3 0 186.7 0 160 0C133.3 0 106.7 0 80 0C53.3 0 26.7 0 13.3 0L0 0Z" fill="#1d583c"></path><path d="M0 106L13.3 105C26.7 104 53.3 102 80 103.7C106.7 105.3 133.3 110.7 160 109.8C186.7 109 213.3 102 240 99.8C266.7 97.7 293.3 100.3 320 100.2C346.7 100 373.3 97 400 96C426.7 95 453.3 96 480 97.7C506.7 99.3 533.3 101.7 560 105.7C586.7 109.7 613.3 115.3 640 116C666.7 116.7 693.3 112.3 720 112.3C746.7 112.3 773.3 116.7 800 115.2C826.7 113.7 853.3 106.3 880 101.7C906.7 97 933.3 95 946.7 94L960 93L960 0L946.7 0C933.3 0 906.7 0 880 0C853.3 0 826.7 0 800 0C773.3 0 746.7 0 720 0C693.3 0 666.7 0 640 0C613.3 0 586.7 0 560 0C533.3 0 506.7 0 480 0C453.3 0 426.7 0 400 0C373.3 0 346.7 0 320 0C293.3 0 266.7 0 240 0C213.3 0 186.7 0 160 0C133.3 0 106.7 0 80 0C53.3 0 26.7 0 13.3 0L0 0Z" fill="#213a2c"></path><path d="M0 52L13.3 54.2C26.7 56.3 53.3 60.7 80 60.5C106.7 60.3 133.3 55.7 160 56.2C186.7 56.7 213.3 62.3 240 63.7C266.7 65 293.3 62 320 60.5C346.7 59 373.3 59 400 60.7C426.7 62.3 453.3 65.7 480 65.7C506.7 65.7 533.3 62.3 560 60.2C586.7 58 613.3 57 640 55.3C666.7 53.7 693.3 51.3 720 51.2C746.7 51 773.3 53 800 56.5C826.7 60 853.3 65 880 64.2C906.7 63.3 933.3 56.7 946.7 53.3L960 50L960 0L946.7 0C933.3 0 906.7 0 880 0C853.3 0 826.7 0 800 0C773.3 0 746.7 0 720 0C693.3 0 666.7 0 640 0C613.3 0 586.7 0 560 0C533.3 0 506.7 0 480 0C453.3 0 426.7 0 400 0C373.3 0 346.7 0 320 0C293.3 0 266.7 0 240 0C213.3 0 186.7 0 160 0C133.3 0 106.7 0 80 0C53.3 0 26.7 0 13.3 0L0 0Z" fill="#1d1d1d"></path></svg>