<svg id="visual" viewBox="0 0 960 300" width="960" height="300" xmlns="http://www.w3.org/2000/svg" xmlns:xlink="http://www.w3.org/1999/xlink" version="1.1"><rect x="0" y="0" width="960" height="300" fill="#ff0066"></rect><path d="M0 198L13.3 200.3C26.7 202.7 53.3 207.3 80 209.7C106.7 212 133.3 212 160 213C186.7 214 213.3 216 240 214.5C266.7 213 293.3 208 320 203C346.7 198 373.3 193 400 191.8C426.7 190.7 453.3 193.3 480 197.8C506.7 202.3 533.3 208.7 560 207.2C586.7 205.7 613.3 196.3 640 194.3C666.7 192.3 693.3 197.7 720 200.3C746.7 203 773.3 203 800 200C826.7 197 853.3 191 880 193.3C906.7 195.7 933.3 206.3 946.7 211.7L960 217L960 0L946.7 0C933.3 0 906.7 0 880 0C853.3 0 826.7 0 800 0C773.3 0 746.7 0 720 0C693.3 0 666.7 0 640 0C613.3 0 586.7 0 560 0C533.3 0 506.7 0 480 0C453.3 0 426.7 0 400 0C373.3 0 346.7 0 320 0C293.3 0 266.7 0 240 0C213.3 0 186.7 0 160 0C133.3 0 106.7 0 80 0C53.3 0 26.7 0 13.3 0L0 0Z" fill="#c43d73"></path><path d="M0 160L13.3 160.3C26.7 160.7 53.3 161.3 80 159.7C106.7 158 133.3 154 160 152.3C186.7 150.7 213.3 151.3 240 152.2C266.7 153 293.3 154 320 156C346.7 158 373.3 161 400 159.3C426.7 157.7 453.3 151.3 480 151.2C506.7 151 533.3 157 560 157.7C586.7 158.3 613.3 153.7 640 154.8C666.7 156 693.3 163 720 164C746.7 165 773.3 160 800 156.8C826.7 153.7 853.3 152.3 880 152.8C906.7 153.3 933.3 155.7 946.7 156.8L960 158L960 0L946.7 0C933.3 0 906.7 0 880 0C853.3 0 826.7 0 800 0C773.3 0 746.7 0 720 0C693.3 0 666.7 0 640 0C613.3 0 586.7 0 560 0C533.3 0 506.7 0 480 0C453.3 0 426.7 0 400 0C373.3 0 346.7 0 320 0C293.3 0 266.7 0 240 0C213.3 0 186.7 0 160 0C133.3 0 106.7 0 80 0C53.3 0 26.7 0 13.3 0L0 0Z" fill="#7d4079"></path><path d="M0 105L13.3 105.3C26.7 105.7 53.3 106.3 80 108C106.7 109.7 133.3 112.3 160 113C186.7 113.7 213.3 112.3 240 109.2C266.7 106 293.3 101 320 100C346.7 99 373.3 102 400 103.7C426.7 105.3 453.3 105.7 480 107.2C506.7 108.7 533.3 111.3 560 110.8C586.7 110.3 613.3 106.7 640 105.5C666.7 104.3 693.3 105.7 720 108.5C746.7 111.3 773.3 115.7 800 113.8C826.7 112 853.3 104 880 102.7C906.7 101.3 933.3 106.7 946.7 109.3L960 112L960 0L946.7 0C933.3 0 906.7 0 880 0C853.3 0 826.7 0 800 0C773.3 0 746.7 0 720 0C693.3 0 666.7 0 640 0C613.3 0 586.7 0 560 0C533.3 0 506.7 0 480 0C453.3 0 426.7 0 400 0C373.3 0 346.7 0 320 0C293.3 0 266.7 0 240 0C213.3 0 186.7 0 160 0C133.3 0 106.7 0 80 0C53.3 0 26.7 0 13.3 0L0 0Z" fill="#3e395e"></path><path d="M0 65L13.3 64.3C26.7 63.7 53.3 62.3 80 62C106.7 61.7 133.3 62.3 160 62.7C186.7 63 213.3 63 240 64C266.7 65 293.3 67 320 66.3C346.7 65.7 373.3 62.3 400 60.5C426.7 58.7 453.3 58.3 480 58C506.7 57.7 533.3 57.3 560 59.5C586.7 61.7 613.3 66.3 640 64.7C666.7 63 693.3 55 720 53.3C746.7 51.7 773.3 56.3 800 59C826.7 61.7 853.3 62.3 880 63.3C906.7 64.3 933.3 65.7 946.7 66.3L960 67L960 0L946.7 0C933.3 0 906.7 0 880 0C853.3 0 826.7 0 800 0C773.3 0 746.7 0 720 0C693.3 0 666.7 0 640 0C613.3 0 586.7 0 560 0C533.3 0 506.7 0 480 0C453.3 0 426.7 0 400 0C373.3 0 346.7 0 320 0C293.3 0 266.7 0 240 0C213.3 0 186.7 0 160 0C133.3 0 106.7 0 80 0C53.3 0 26.7 0 13.3 0L0 0Z" fill="#202731"></path></svg>