<svg id="visual" viewBox="0 0 900 300" width="900" height="300" xmlns="http://www.w3.org/2000/svg" xmlns:xlink="http://www.w3.org/1999/xlink" version="1.1"><rect x="0" y="0" width="900" height="300" fill="#202731"></rect><path d="M0 205L16.7 205.8C33.3 206.7 66.7 208.3 100 205.3C133.3 202.3 166.7 194.7 200 193C233.3 191.3 266.7 195.7 300 194.7C333.3 193.7 366.7 187.3 400 188.7C433.3 190 466.7 199 500 201.8C533.3 204.7 566.7 201.3 600 197.5C633.3 193.7 666.7 189.3 700 192C733.3 194.7 766.7 204.3 800 203.2C833.3 202 866.7 190 883.3 184L900 178L900 0L883.3 0C866.7 0 833.3 0 800 0C766.7 0 733.3 0 700 0C666.7 0 633.3 0 600 0C566.7 0 533.3 0 500 0C466.7 0 433.3 0 400 0C366.7 0 333.3 0 300 0C266.7 0 233.3 0 200 0C166.7 0 133.3 0 100 0C66.7 0 33.3 0 16.7 0L0 0Z" fill="#22352b"></path><path d="M0 128L16.7 132.7C33.3 137.3 66.7 146.7 100 152.5C133.3 158.3 166.7 160.7 200 158.8C233.3 157 266.7 151 300 148.7C333.3 146.3 366.7 147.7 400 145.5C433.3 143.3 466.7 137.7 500 136.7C533.3 135.7 566.7 139.3 600 141.3C633.3 143.3 666.7 143.7 700 144.7C733.3 145.7 766.7 147.3 800 147.5C833.3 147.7 866.7 146.3 883.3 145.7L900 145L900 0L883.3 0C866.7 0 833.3 0 800 0C766.7 0 733.3 0 700 0C666.7 0 633.3 0 600 0C566.7 0 533.3 0 500 0C466.7 0 433.3 0 400 0C366.7 0 333.3 0 300 0C266.7 0 233.3 0 200 0C166.7 0 133.3 0 100 0C66.7 0 33.3 0 16.7 0L0 0Z" fill="#25583f"></path><path d="M0 107L16.7 103.8C33.3 100.7 66.7 94.3 100 92C133.3 89.7 166.7 91.3 200 93.2C233.3 95 266.7 97 300 94.8C333.3 92.7 366.7 86.3 400 85.3C433.3 84.3 466.7 88.7 500 93C533.3 97.3 566.7 101.7 600 105.7C633.3 109.7 666.7 113.3 700 109.7C733.3 106 766.7 95 800 91.2C833.3 87.3 866.7 90.7 883.3 92.3L900 94L900 0L883.3 0C866.7 0 833.3 0 800 0C766.7 0 733.3 0 700 0C666.7 0 633.3 0 600 0C566.7 0 533.3 0 500 0C466.7 0 433.3 0 400 0C366.7 0 333.3 0 300 0C266.7 0 233.3 0 200 0C166.7 0 133.3 0 100 0C66.7 0 33.3 0 16.7 0L0 0Z" fill="#207d53"></path><path d="M0 41L16.7 44.5C33.3 48 66.7 55 100 58.7C133.3 62.3 166.7 62.7 200 59.5C233.3 56.3 266.7 49.7 300 50.5C333.3 51.3 366.7 59.7 400 62.3C433.3 65 466.7 62 500 62.2C533.3 62.3 566.7 65.7 600 64.5C633.3 63.3 666.7 57.7 700 56.7C733.3 55.7 766.7 59.3 800 59.3C833.3 59.3 866.7 55.7 883.3 53.8L900 52L900 0L883.3 0C866.7 0 833.3 0 800 0C766.7 0 733.3 0 700 0C666.7 0 633.3 0 600 0C566.7 0 533.3 0 500 0C466.7 0 433.3 0 400 0C366.7 0 333.3 0 300 0C266.7 0 233.3 0 200 0C166.7 0 133.3 0 100 0C66.7 0 33.3 0 16.7 0L0 0Z" fill="#05a369"></path></svg>