<svg id="visual" viewBox="0 0 960 300" width="960" height="300" xmlns="http://www.w3.org/2000/svg" xmlns:xlink="http://www.w3.org/1999/xlink" version="1.1"><rect x="0" y="0" width="960" height="300" fill="#303030"></rect><path d="M0 205L13.3 207C26.7 209 53.3 213 80 209.5C106.7 206 133.3 195 160 192.2C186.7 189.3 213.3 194.7 240 195C266.7 195.3 293.3 190.7 320 191.2C346.7 191.7 373.3 197.3 400 202.5C426.7 207.7 453.3 212.3 480 215.2C506.7 218 533.3 219 560 214C586.7 209 613.3 198 640 194.2C666.7 190.3 693.3 193.7 720 197C746.7 200.3 773.3 203.7 800 207C826.7 210.3 853.3 213.7 880 213C906.7 212.3 933.3 207.7 946.7 205.3L960 203L960 0L946.7 0C933.3 0 906.7 0 880 0C853.3 0 826.7 0 800 0C773.3 0 746.7 0 720 0C693.3 0 666.7 0 640 0C613.3 0 586.7 0 560 0C533.3 0 506.7 0 480 0C453.3 0 426.7 0 400 0C373.3 0 346.7 0 320 0C293.3 0 266.7 0 240 0C213.3 0 186.7 0 160 0C133.3 0 106.7 0 80 0C53.3 0 26.7 0 13.3 0L0 0Z" fill="#3e3e3e"></path><path d="M0 140L13.3 141.7C26.7 143.3 53.3 146.7 80 151.2C106.7 155.7 133.3 161.3 160 164.8C186.7 168.3 213.3 169.7 240 168.2C266.7 166.7 293.3 162.3 320 157.8C346.7 153.3 373.3 148.7 400 146.2C426.7 143.7 453.3 143.3 480 145.3C506.7 147.3 533.3 151.7 560 151.3C586.7 151 613.3 146 640 144.5C666.7 143 693.3 145 720 149.3C746.7 153.7 773.3 160.3 800 159.5C826.7 158.7 853.3 150.3 880 149.5C906.7 148.7 933.3 155.3 946.7 158.7L960 162L960 0L946.7 0C933.3 0 906.7 0 880 0C853.3 0 826.7 0 800 0C773.3 0 746.7 0 720 0C693.3 0 666.7 0 640 0C613.3 0 586.7 0 560 0C533.3 0 506.7 0 480 0C453.3 0 426.7 0 400 0C373.3 0 346.7 0 320 0C293.3 0 266.7 0 240 0C213.3 0 186.7 0 160 0C133.3 0 106.7 0 80 0C53.3 0 26.7 0 13.3 0L0 0Z" fill="#333333"></path><path d="M0 114L13.3 110.8C26.7 107.7 53.3 101.3 80 100.7C106.7 100 133.3 105 160 107C186.7 109 213.3 108 240 109.3C266.7 110.7 293.3 114.3 320 113.5C346.7 112.7 373.3 107.3 400 107.7C426.7 108 453.3 114 480 115.8C506.7 117.7 533.3 115.3 560 111.8C586.7 108.3 613.3 103.7 640 102.5C666.7 101.3 693.3 103.7 720 106C746.7 108.3 773.3 110.7 800 109.2C826.7 107.7 853.3 102.3 880 101C906.7 99.7 933.3 102.3 946.7 103.7L960 105L960 0L946.7 0C933.3 0 906.7 0 880 0C853.3 0 826.7 0 800 0C773.3 0 746.7 0 720 0C693.3 0 666.7 0 640 0C613.3 0 586.7 0 560 0C533.3 0 506.7 0 480 0C453.3 0 426.7 0 400 0C373.3 0 346.7 0 320 0C293.3 0 266.7 0 240 0C213.3 0 186.7 0 160 0C133.3 0 106.7 0 80 0C53.3 0 26.7 0 13.3 0L0 0Z" fill="#282828"></path><path d="M0 67L13.3 67.7C26.7 68.3 53.3 69.7 80 69.8C106.7 70 133.3 69 160 65.7C186.7 62.3 213.3 56.7 240 56C266.7 55.3 293.3 59.7 320 61.2C346.7 62.7 373.3 61.3 400 59.5C426.7 57.7 453.3 55.3 480 53.5C506.7 51.7 533.3 50.3 560 49.5C586.7 48.7 613.3 48.3 640 49.2C666.7 50 693.3 52 720 52.3C746.7 52.7 773.3 51.3 800 51.3C826.7 51.3 853.3 52.7 880 56.2C906.7 59.7 933.3 65.3 946.7 68.2L960 71L960 0L946.7 0C933.3 0 906.7 0 880 0C853.3 0 826.7 0 800 0C773.3 0 746.7 0 720 0C693.3 0 666.7 0 640 0C613.3 0 586.7 0 560 0C533.3 0 506.7 0 480 0C453.3 0 426.7 0 400 0C373.3 0 346.7 0 320 0C293.3 0 266.7 0 240 0C213.3 0 186.7 0 160 0C133.3 0 106.7 0 80 0C53.3 0 26.7 0 13.3 0L0 0Z" fill="#1d1d1d"></path></svg>